<?xml version="1.0" encoding="UTF-8" standalone="no"?>
<svg
   viewBox="0 0 945.88188 454.54329"
   width="945.8819"
   height="454.54327"
   version="1.1"
   id="svg20"
   xmlns="http://www.w3.org/2000/svg"
   xmlns:svg="http://www.w3.org/2000/svg">
  <desc
     id="desc1">Sketch5fix.dxf - scale = 1.000000, origin = (0.000000, 0.000000), method = manual</desc>
  <defs
     id="defs4" />
  <g
     id="g20"
     transform="translate(1128.4449,-896.57083)">
    <path
       d="m -709.89141,1099.6733 v 56.6929 h -15.33025 a 3.779528,3.779528 0 0 0 -3.0577,1.558 l -12.83906,17.6714 a 3.779528,3.779528 0 0 1 -3.0577,1.558 h -32.08998 a 68.031496,68.031496 0 0 1 -110.98133,-25.8599 3.779528,3.779528 0 0 0 -3.55148,-2.4866 h -13.73817 a 3.779528,3.779528 0 0 1 -3.77952,-3.7795 v -34.0157 a 3.779528,3.779528 0 0 1 3.77952,-3.7796 h 13.73817 a 3.779528,3.779528 0 0 0 3.55148,-2.4865 68.031496,68.031496 0 0 1 110.98133,-25.8599 h 32.08998 a 3.779528,3.779528 0 0 1 3.0577,1.558 l 12.83906,17.6714 a 3.779528,3.779528 0 0 0 3.0577,1.558 z"
       style="fill:none;stroke:#000000"
       id="path9" />
    <path
       d="m -914.93078,1318.8859 a 6.6141735,6.6141735 0 0 0 -13.22834,0 6.6141735,6.6141735 0 0 0 13.22834,0 z"
       style="fill:none;stroke:#000000"
       id="path10" />
    <path
       d="m -911.15125,942.82289 a 6.614175,6.614175 0 0 0 -13.22835,0 6.614175,6.614175 0 0 0 13.22835,0 z"
       style="fill:none;stroke:#000000"
       id="path11" />
    <path
       d="m -718.39534,1318.8859 a 6.614175,6.614175 0 0 0 -13.22835,0 6.614175,6.614175 0 0 0 13.22835,0 z"
       style="fill:none;stroke:#000000"
       id="path12" />
    <path
       d="m -718.39534,937.1536 a 6.614175,6.614175 0 0 0 -13.22835,0 6.614175,6.614175 0 0 0 13.22835,0 z"
       style="fill:none;stroke:#000000"
       id="path13" />
    <path
       d="m -664.00781,1123.8425 a 10.393701,10.393701 0 0 0 -20.7874,0 10.393701,10.393701 0 0 0 20.7874,0 z"
       style="fill:none;stroke:#000000"
       id="path14" />
    <path
       d="m -588.41726,1123.8425 a 10.393701,10.393701 0 0 0 -20.7874,0 10.393701,10.393701 0 0 0 20.7874,0 z"
       style="fill:none;stroke:#000000"
       id="path15" />
    <path
       d="m -183.06292,897.07087 h -944.88188 v 453.54333 h 944.88188 z"
       style="fill:none;stroke:#000000"
       id="path16" />
    <path
       d="m -761.00225,1184.7127 a 5.6692915,5.6692915 0 0 0 -11.33858,0 5.6692915,5.6692915 0 0 0 11.33858,0 z"
       style="fill:none;stroke:#000000"
       id="path17" />
    <path
       d="m -761.00225,1071.3268 a 5.6692915,5.6692915 0 0 0 -11.33858,0 5.6692915,5.6692915 0 0 0 11.33858,0 z"
       style="fill:none;stroke:#000000"
       id="path18" />
    <path
       d="m -874.30085,1071.3268 a 5.669295,5.669295 0 0 0 -11.33859,0 5.669295,5.669295 0 0 0 11.33859,0 z"
       style="fill:none;stroke:#000000"
       id="path19" />
    <path
       d="m -874.30085,1184.7127 a 5.669295,5.669295 0 0 0 -11.33859,0 5.669295,5.669295 0 0 0 11.33859,0 z"
       style="fill:none;stroke:#000000"
       id="path20" />
  </g>
</svg>
