0
SECTION
2
HEADER
9
$INSUNITS
70
4
9
$ACADVER
1
AC1014
9
$HANDSEED
5
FFFF
0
ENDSEC
0
SECTION
2
TABLES
0
TABLE
2
VPORT
5
8
100
AcDbSymbolTable
0
ENDTAB
0
TABLE
2
LTYPE
5
5
100
AcDbSymbolTable
0
LTYPE
5
14
100
AcDbSymbolTableRecord
100
AcDbLinetypeTableRecord
2
BYBLOCK
70
0
0
LTYPE
5
15
100
AcDbSymbolTableRecord
100
AcDbLinetypeTableRecord
2
BYLAYER
70
0
0
LTYPE
5
16
100
AcDbSymbolTableRecord
100
AcDbLinetypeTableRecord
2
DASHED
70
0
3
Dashed __ __ __ __ __ __ __ __ __ __ __ __ __ _
72
65
73
2
40
0.75
49
0.5
74
0
49
-0.25
74
0
0
ENDTAB
0
TABLE
2
LAYER
5
2
100
AcDbSymbolTable
70
2
0
LAYER
5
50
100
AcDbSymbolTableRecord
100
AcDbLayerTableRecord
2
0
70
0
62
7
6
CONTINUOUS
0
ENDTAB
0
TABLE
2
STYLE
5
3
100
AcDbSymbolTable
70
1
0
STYLE
5
11
100
AcDbSymbolTableRecord
100
AcDbTextStyleTableRecord
2
STANDARD
70
0
0
ENDTAB
0
TABLE
2
VIEW
5
6
100
AcDbSymbolTable
70
0
0
ENDTAB
0
TABLE
2
UCS
5
7
100
AcDbSymbolTable
70
0
0
ENDTAB
0
TABLE
2
APPID
5
9
100
AcDbSymbolTable
70
2
0
APPID
5
12
100
AcDbSymbolTableRecord
100
AcDbRegAppTableRecord
2
ACAD
70
0
0
ENDTAB
0
TABLE
2
DIMSTYLE
5
A
100
AcDbSymbolTable
70
1
0
ENDTAB
0
TABLE
2
BLOCK_RECORD
5
1
100
AcDbSymbolTable
70
1
0
BLOCK_RECORD
5
1F
100
AcDbSymbolTableRecord
100
AcDbBlockTableRecord
2
*MODEL_SPACE
0
BLOCK_RECORD
5
1B
100
AcDbSymbolTableRecord
100
AcDbBlockTableRecord
2
*PAPER_SPACE
0
ENDTAB
0
ENDSEC
0
SECTION
2
BLOCKS
0
BLOCK
5
20
100
AcDbEntity
100
AcDbBlockBegin
2
*MODEL_SPACE
0
ENDBLK
5
21
100
AcDbEntity
100
AcDbBlockEnd
0
BLOCK
5
1C
100
AcDbEntity
100
AcDbBlockBegin
2
*PAPER_SPACE
0
ENDBLK
5
1D
100
AcDbEntity
100
AcDbBlockEnd
0
ENDSEC
0
SECTION
2
ENTITIES
0
POINT
5
100
100
AcDbEntity
8
0
100
AcDbPoint
10
-232.82543455987437
20
-16.455223551451368
30
0
0
POINT
5
101
100
AcDbEntity
8
0
100
AcDbPoint
10
-202.84851095045201
20
-16.455223551450764
30
0
0
POINT
5
102
100
AcDbEntity
8
0
100
AcDbPoint
10
-202.84851095045263
20
13.544776448549189
30
0
0
POINT
5
103
100
AcDbEntity
8
0
100
AcDbPoint
10
-232.82543455987496
20
13.544776448548586
30
0
0
CIRCLE
5
104
100
AcDbEntity
8
0
100
AcDbCircle
10
-178.43540029802347
20
-0.34999999999990422
30
0
40
2.7500000000000031
210
-0
220
0
230
1
0
CIRCLE
5
105
100
AcDbEntity
8
0
100
AcDbCircle
10
-158.43540000000024
20
-0.34999999999990261
30
0
40
2.7500000000000031
210
-0
220
0
230
1
0
LWPOLYLINE
5
106
100
AcDbEntity
8
0
100
AcDbPolyline
90
4
70
1
43
0.0
10
-48.435397988343524
20
59.650000000000098
10
-298.43539798834348
20
59.650000000000077
10
-298.43539798834348
20
-60.349999999999888
10
-48.435397988343531
20
-60.349999999999881
0
CIRCLE
5
107
100
AcDbEntity
8
0
100
AcDbCircle
10
-242.82543493240519
20
47.544777178705189
30
0
40
1.7499999999999962
210
7.2414965908960462e-31
220
-1.9721522630523819e-31
230
1
0
CIRCLE
5
108
100
AcDbEntity
8
0
100
AcDbCircle
10
-191.82543455987624
20
49.044776448549321
30
0
40
1.7499999999999962
210
7.2414965908960462e-31
220
-1.9721522630523819e-31
230
1
0
CIRCLE
5
109
100
AcDbEntity
8
0
100
AcDbCircle
10
-191.82543455987417
20
-51.955223551450509
30
0
40
1.7499999999999962
210
7.2414965908960462e-31
220
-1.9721522630523819e-31
230
1
0
CIRCLE
5
110
100
AcDbEntity
8
0
100
AcDbCircle
10
-243.82543455987411
20
-51.955223551451574
30
0
40
1.7499999999999962
210
7.2414965908960462e-31
220
-1.9721522630523819e-31
230
1
0
LINE
5
111
100
AcDbEntity
8
0
100
AcDbLine
10
-235.69054382652098
20
-6.955223551451482
30
0
11
-239.32543455987502
21
-6.9552235514515548
31
1.275735995162105e-29
0
ARC
5
112
100
AcDbEntity
8
0
100
AcDbCircle
10
-239.32543455987508
20
-5.9552235514515566
30
0
40
1.0000000000000142
210
1.8119148916794793e-30
220
2.2186712959344622e-31
230
1
100
AcDbArc
50
180
51
270.00000000000324
0
LINE
5
113
100
AcDbEntity
8
0
100
AcDbLine
10
-240.32543455987508
20
-5.9552235514515761
30
0
11
-240.32543455987525
21
3.0447764485484106
31
3.8210450096642759e-30
0
ARC
5
114
100
AcDbEntity
8
0
100
AcDbCircle
10
-239.32543455987525
20
3.0447764485484323
30
0
40
0.99999999999999867
210
1.818077867501557e-30
220
-2.7117093616968532e-31
230
1
100
AcDbArc
50
90.000000000001634
51
180
0
LINE
5
115
100
AcDbEntity
8
0
100
AcDbLine
10
-239.32543455987528
20
4.0447764485484301
30
0
11
-235.69054382652124
21
4.0447764485485029
31
-1.2880619468061833e-29
0
ARC
5
116
100
AcDbEntity
8
0
100
AcDbCircle
10
-235.69054382652129
20
5.0447764485485322
30
-3.6039644879353889e-43
40
1.000000000000032
210
-3.0506752934326049e-30
220
2.3179973058950829e-31
230
1
100
AcDbArc
50
270.00000000000324
51
339.99480991184026
0
ARC
5
117
100
AcDbEntity
8
0
100
AcDbCircle
10
-217.836972755164
20
-1.4552235514511302
30
4.5542200090556555e-44
40
17.999999999999968
210
-6.8279514161849265e-31
220
1.6915051468382695e-30
230
1
100
AcDbArc
50
46.238257307321405
51
159.99480991184168
0
ARC
5
118
100
AcDbEntity
8
0
100
AcDbCircle
10
-235.69054382652095
20
-7.9552235514514633
30
-8.210733189403225e-44
40
0.99999999999997513
210
1.8304038191455915e-30
220
2.2186712959341299e-31
230
1
100
AcDbArc
50
20.005190088161253
51
90.000000000003254
0
ARC
5
119
100
AcDbEntity
8
0
100
AcDbCircle
10
-217.836972755164
20
-1.4552235514511302
30
8.7581154020301067e-46
40
17.99999999999995
210
-4.1486872024465705e-31
220
1.6588779716849241e-31
230
1
100
AcDbArc
50
200.00519008816067
51
313.76174269268097
0
LINE
5
120
100
AcDbEntity
8
0
100
AcDbLine
10
-205.38707315717556
20
11.544776448549092
30
0
11
-196.89659860667001
21
11.544776448549264
31
2.7425242408074239e-29
0
LINE
5
121
100
AcDbEntity
8
0
100
AcDbLine
10
-196.89659860666947
20
-14.455223551450686
30
0
11
-205.38707315717502
21
-14.455223551450857
31
-2.7517687045404826e-29
0
ARC
5
122
100
AcDbEntity
8
0
100
AcDbCircle
10
-196.8965986066695
20
-13.45522355145069
30
0
40
0.99999999999999867
210
1.8334853070566447e-30
220
1.9721522630529074e-31
230
1
100
AcDbArc
50
270.00000000000159
51
324.00000000000051
0
LINE
5
123
100
AcDbEntity
8
0
100
AcDbLine
10
-192.69058079802619
20
-9.3674382991581382
30
0
11
-196.08758161229457
21
-14.043008803743145
31
1.1709654061874394e-29
0
ARC
5
124
100
AcDbEntity
8
0
100
AcDbCircle
10
-196.89659860667001
20
10.544776448549264
30
0
40
0.99999999999999922
210
-3.9387747573569346e-31
220
6.8891696669981032e-31
230
1
100
AcDbArc
50
36.000000000000341
51
90
0
LINE
5
125
100
AcDbEntity
8
0
100
AcDbLine
10
-196.08758161229505
20
11.132561700841752
30
0
11
-192.6905807980265
21
6.4569911962568893
31
1.5653958587979453e-29
0
ARC
5
126
100
AcDbEntity
8
0
100
AcDbCircle
10
-191.8815638036516
20
7.0447764485493209
30
1.0411209684163289e-43
40
0.9999999999999456
210
1.8304038191455911e-30
220
2.2186712959341132e-31
230
1
100
AcDbArc
50
216.00000000000028
51
270.00000000000324
0
LINE
5
127
100
AcDbEntity
8
0
100
AcDbLine
10
-191.88156380365155
20
6.0447764485493813
30
0
11
-189.82543455987536
21
6.0447764485494222
31
1.5715588346199845e-30
0
LINE
5
128
100
AcDbEntity
8
0
100
AcDbLine
10
-189.82543455987536
20
6.044776448549424
30
0
11
-187.82543455987525
21
6.0447764485494728
31
3.919795306788048e-17
0
ARC
5
129
100
AcDbEntity
8
0
100
AcDbCircle
10
-191.88156380365118
20
-9.9552235514507128
30
7.3261635337981842e-43
40
1.0000000000001186
210
-1.4965866152834002e-30
220
2.7632623759873189e-30
230
1
100
AcDbArc
50
90.000000000004889
51
143.99999999999739
0
LINE
5
130
100
AcDbEntity
8
0
100
AcDbLine
10
-189.82543455987508
20
-8.9552235514505547
30
0
11
-191.88156380365126
21
-8.9552235514505956
31
-1.3943732797363588e-30
0
LINE
5
131
100
AcDbEntity
8
0
100
AcDbLine
10
-187.82543455987496
20
-8.955223551450505
30
0
11
-189.82543455987508
21
-8.9552235514505547
31
-3.919795306788048e-17
0
LINE
5
132
100
AcDbEntity
8
0
100
AcDbLine
10
-187.82543455987496
20
-8.955223551450505
30
0
11
-187.82543455987525
21
6.0447764485494728
31
3.919795306788048e-17
0
ENDSEC
0
SECTION
2
OBJECTS
0
DICTIONARY
5
C
100
AcDbDictionary
3
ACAD_GROUP
350
D
3
ACAD_MLINESTYLE
350
17
0
DICTIONARY
5
D
100
AcDbDictionary
0
DICTIONARY
5
1A
330
C
100
AcDbDictionary
0
DICTIONARY
5
17
100
AcDbDictionary
0
ENDSEC
0
EOF
