0
SECTION
2
HEADER
9
$INSUNITS
70
4
9
$ACADVER
1
AC1014
9
$HANDSEED
5
FFFF
0
ENDSEC
0
SECTION
2
TABLES
0
TABLE
2
VPORT
5
8
100
AcDbSymbolTable
0
ENDTAB
0
TABLE
2
LTYPE
5
5
100
AcDbSymbolTable
0
LTYPE
5
14
100
AcDbSymbolTableRecord
100
AcDbLinetypeTableRecord
2
BYBLOCK
70
0
0
LTYPE
5
15
100
AcDbSymbolTableRecord
100
AcDbLinetypeTableRecord
2
BYLAYER
70
0
0
LTYPE
5
16
100
AcDbSymbolTableRecord
100
AcDbLinetypeTableRecord
2
DASHED
70
0
3
Dashed __ __ __ __ __ __ __ __ __ __ __ __ __ _
72
65
73
2
40
0.75
49
0.5
74
0
49
-0.25
74
0
0
ENDTAB
0
TABLE
2
LAYER
5
2
100
AcDbSymbolTable
70
2
0
LAYER
5
50
100
AcDbSymbolTableRecord
100
AcDbLayerTableRecord
2
0
70
0
62
7
6
CONTINUOUS
0
ENDTAB
0
TABLE
2
STYLE
5
3
100
AcDbSymbolTable
70
1
0
STYLE
5
11
100
AcDbSymbolTableRecord
100
AcDbTextStyleTableRecord
2
STANDARD
70
0
0
ENDTAB
0
TABLE
2
VIEW
5
6
100
AcDbSymbolTable
70
0
0
ENDTAB
0
TABLE
2
UCS
5
7
100
AcDbSymbolTable
70
0
0
ENDTAB
0
TABLE
2
APPID
5
9
100
AcDbSymbolTable
70
2
0
APPID
5
12
100
AcDbSymbolTableRecord
100
AcDbRegAppTableRecord
2
ACAD
70
0
0
ENDTAB
0
TABLE
2
DIMSTYLE
5
A
100
AcDbSymbolTable
70
1
0
ENDTAB
0
TABLE
2
BLOCK_RECORD
5
1
100
AcDbSymbolTable
70
1
0
BLOCK_RECORD
5
1F
100
AcDbSymbolTableRecord
100
AcDbBlockTableRecord
2
*MODEL_SPACE
0
BLOCK_RECORD
5
1B
100
AcDbSymbolTableRecord
100
AcDbBlockTableRecord
2
*PAPER_SPACE
0
ENDTAB
0
ENDSEC
0
SECTION
2
BLOCKS
0
BLOCK
5
20
100
AcDbEntity
100
AcDbBlockBegin
2
*MODEL_SPACE
0
ENDBLK
5
21
100
AcDbEntity
100
AcDbBlockEnd
0
BLOCK
5
1C
100
AcDbEntity
100
AcDbBlockBegin
2
*PAPER_SPACE
0
ENDBLK
5
1D
100
AcDbEntity
100
AcDbBlockEnd
0
ENDSEC
0
SECTION
2
ENTITIES
0
LWPOLYLINE
5
100
100
AcDbEntity
8
0
100
AcDbPolyline
90
4
70
1
43
0.0
10
-48.435397988343489
20
59.650000000000141
10
-298.43539798834348
20
59.650000000000212
10
-298.43539798834354
20
-60.349999999999795
10
-48.435397988343496
20
-60.349999999999866
0
CIRCLE
5
101
100
AcDbEntity
8
0
100
AcDbCircle
10
-178.43540029802347
20
-0.34999999999982723
30
0
40
2.7500000000000036
210
0
220
-0
230
1
0
CIRCLE
5
102
100
AcDbEntity
8
0
100
AcDbCircle
10
-158.43540000000027
20
-0.34999999999983261
30
0
40
2.7500000000000036
210
0
220
-0
230
1
0
CIRCLE
5
103
100
AcDbEntity
8
0
100
AcDbCircle
10
-172.93540021606717
20
-26.350000387430125
30
0
40
1.7499999999999893
210
0
220
-0
230
1
0
CIRCLE
5
104
100
AcDbEntity
8
0
100
AcDbCircle
10
-172.93539464675817
20
25.64999941885478
30
0
40
1.7499999999999893
210
0
220
-0
230
1
0
CIRCLE
5
105
100
AcDbEntity
8
0
100
AcDbCircle
10
-272.43539242275983
20
24.649999441206546
30
0
40
1.7500000000000071
210
0
220
-0
230
1
0
CIRCLE
5
106
100
AcDbEntity
8
0
100
AcDbCircle
10
-273.93539238923222
20
-26.349999418854622
30
0
40
1.7500000000000071
210
0
220
-0
230
1
0
ARC
5
107
100
AcDbEntity
8
0
100
AcDbCircle
10
-208.43540021606708
20
14.649999612569859
30
-2.0868946856399864e-46
40
1.4999999999999973
210
1.4075534455214906e-32
220
2.0238469940405041e-32
230
1
100
AcDbArc
50
-55.181993021329106
51
145.18200005073308
0
ARC
5
108
100
AcDbEntity
8
0
100
AcDbCircle
10
-223.43539798834354
20
-0.34999999999980602
30
-3.5579843820747308e-46
40
20.999999999999975
210
-6.8244327721485441e-33
220
-5.2224757305573271e-33
230
1
100
AcDbArc
50
49.0314319869684
51
74.816892254277533
0
ARC
5
109
100
AcDbEntity
8
0
100
AcDbCircle
10
-208.43540021606708
20
-15.326923996852527
30
0
40
1.4999999999999767
210
0
220
0
230
1
100
AcDbArc
50
-144.51317954540602
51
54.601382710381706
0
ARC
5
110
100
AcDbEntity
8
0
100
AcDbCircle
10
-223.43539798834354
20
-0.34999999999980602
30
-3.5579843820747308e-46
40
21.000000000000007
210
9.301807291390019e-33
220
8.0873645303028665e-33
230
1
100
AcDbArc
50
308.24661213908468
51
311.00500552288889
0
ARC
5
111
100
AcDbEntity
8
0
100
AcDbCircle
10
-238.43540021606708
20
-15.326923996852535
30
-2.3947971802426073e-47
40
1.5000000000000062
210
1.0036408720657624e-32
220
-7.1553884537502978e-33
230
1
100
AcDbArc
50
125.3984880881914
51
324.51329172829986
0
ARC
5
112
100
AcDbEntity
8
0
100
AcDbCircle
10
-223.43539798834354
20
-0.34999999999980602
30
-3.5579843820747308e-46
40
20.999999999999943
210
-8.0730342693001468e-33
220
9.3142472384440363e-33
230
1
100
AcDbArc
50
139.03143193853293
51
220.91679528357295
0
ARC
5
113
100
AcDbEntity
8
0
100
AcDbCircle
10
-238.43540021606708
20
14.649999612569856
30
-3.1816591108937497e-46
40
1.5000000000000002
210
-7.0377456424564685e-33
220
-1.0119249982298363e-32
230
1
100
AcDbArc
50
34.817887721952168
51
235.18212226719979
0
ARC
5
114
100
AcDbEntity
8
0
100
AcDbCircle
10
-223.43539798834354
20
-0.34999999999980602
30
-3.5579843820747308e-46
40
20.999999999999961
210
-8.9922007666848713e-33
220
3.5040380520911812e-33
230
1
100
AcDbArc
50
105.18312034150416
51
130.96857805061836
0
LINE
5
115
100
AcDbEntity
8
0
100
AcDbLine
10
-228.93540021606702
20
19.916967594957139
30
-1.2047334990213221e-31
11
-228.93540021606702
21
21.149999612569836
31
0
0
ARC
5
116
100
AcDbEntity
8
0
100
AcDbCircle
10
-227.93540021606705
20
21.149999612569836
30
8.1679689540417499e-47
40
0.99999999999999645
210
3.0814879110195869e-33
220
-2.7796752984959282e-47
230
1
100
AcDbArc
50
89.99999999999838
51
180
0
LINE
5
117
100
AcDbEntity
8
0
100
AcDbLine
10
-227.93540021606702
20
22.149999612569829
30
0
11
-218.93540021606702
21
22.149999612569843
31
0
0
ARC
5
118
100
AcDbEntity
8
0
100
AcDbCircle
10
-218.93540021606702
20
21.14999961256984
30
0
40
1.0000000000000142
210
0
220
0
230
1
100
AcDbArc
50
0
51
90
0
LINE
5
119
100
AcDbEntity
8
0
100
AcDbLine
10
-217.93540021606702
20
21.149999612569836
30
0
11
-217.93540021606702
21
19.916968804065394
31
2.5884498452564415e-31
0
ARC
5
120
100
AcDbEntity
8
0
100
AcDbCircle
10
-223.43539798834354
20
-0.34999999999980602
30
-3.5579843820747308e-46
40
21.000000000000014
210
-7.9922054900479567e-33
220
-9.2209888947074507e-33
230
1
100
AcDbArc
50
-40.916802357913596
51
40.968575042434388
0
LINE
5
121
100
AcDbEntity
8
0
100
AcDbLine
10
-210.43540021606708
20
-16.842424258452773
30
1.2456772900303781e-32
11
-210.43540021606708
21
-21.278836340635586
31
0
0
ARC
5
122
100
AcDbEntity
8
0
100
AcDbCircle
10
-211.43540021606699
20
-21.278836340635664
30
-9.6390586504764944e-46
40
0.99999999999988587
210
6.9654386556770677e-46
220
-2.4651903288156898e-32
230
1
100
AcDbArc
50
-54.000000000001428
51
0
0
LINE
5
123
100
AcDbEntity
8
0
100
AcDbLine
10
-210.84761496377462
20
-22.087853335010522
30
-1.9943808703805807e-32
11
-215.52318546835954
21
-25.484854149278995
31
0
0
ARC
5
124
100
AcDbEntity
8
0
100
AcDbCircle
10
-214.93540021606705
20
-26.293871143653984
30
0
40
1.0000000000000528
210
-4.9859521759515825e-33
220
-3.6225062984297041e-33
230
1
100
AcDbArc
50
125.99999999999945
51
180
0
LINE
5
125
100
AcDbEntity
8
0
100
AcDbLine
10
-215.93540021606711
20
-26.293871143653931
30
-4.9859521759516776e-33
11
-215.93540021606708
21
-30.350000387430111
31
0
0
LINE
5
126
100
AcDbEntity
8
0
100
AcDbLine
10
-215.93540021606708
20
-30.350000387430111
30
0
11
-230.93540021606708
21
-30.350000387430111
31
0
0
LINE
5
127
100
AcDbEntity
8
0
100
AcDbLine
10
-230.93540021606708
20
-30.350000387430111
30
0
11
-230.93540021606699
21
-26.293871143653913
31
0
0
ARC
5
128
100
AcDbEntity
8
0
100
AcDbCircle
10
-231.93540021606708
20
-26.293871143653959
30
0
40
1.0000000000000853
210
3.6866076669823436e-62
220
-8.301502457642156e-49
230
1
100
AcDbArc
50
0
51
53.99999999999914
0
LINE
5
129
100
AcDbEntity
8
0
100
AcDbLine
10
-231.34761496377456
20
-25.484854149278974
30
-1.8112531492150676e-33
11
-236.02318546835954
21
-22.087853335010543
31
0
0
ARC
5
130
100
AcDbEntity
8
0
100
AcDbCircle
10
-235.43540021606705
20
-21.278836340635582
30
0
40
0.99999999999997868
210
0
220
0
230
1
100
AcDbArc
50
180
51
233.9999999999996
0
LINE
5
131
100
AcDbEntity
8
0
100
AcDbLine
10
-236.43540021606702
20
-21.278836340635571
30
0
11
-236.43540021606702
21
-16.842420746487644
31
0
0
ARC
5
132
100
AcDbEntity
8
0
100
AcDbCircle
10
-223.43539798834354
20
-0.34999999999980602
30
-3.5579843820747308e-46
40
20.999999999999961
210
-5.7766901033672791e-34
220
-6.6441470626824902e-34
230
1
100
AcDbArc
50
228.99498453291767
51
231.75337238239405
0
ENDSEC
0
SECTION
2
OBJECTS
0
DICTIONARY
5
C
100
AcDbDictionary
3
ACAD_GROUP
350
D
3
ACAD_MLINESTYLE
350
17
0
DICTIONARY
5
D
100
AcDbDictionary
0
DICTIONARY
5
1A
330
C
100
AcDbDictionary
0
DICTIONARY
5
17
100
AcDbDictionary
0
ENDSEC
0
EOF
