0
SECTION
2
HEADER
9
$INSUNITS
70
4
9
$ACADVER
1
AC1014
9
$HANDSEED
5
FFFF
0
ENDSEC
0
SECTION
2
TABLES
0
TABLE
2
VPORT
5
8
100
AcDbSymbolTable
0
ENDTAB
0
TABLE
2
LTYPE
5
5
100
AcDbSymbolTable
0
LTYPE
5
14
100
AcDbSymbolTableRecord
100
AcDbLinetypeTableRecord
2
BYBLOCK
70
0
0
LTYPE
5
15
100
AcDbSymbolTableRecord
100
AcDbLinetypeTableRecord
2
BYLAYER
70
0
0
LTYPE
5
16
100
AcDbSymbolTableRecord
100
AcDbLinetypeTableRecord
2
DASHED
70
0
3
Dashed __ __ __ __ __ __ __ __ __ __ __ __ __ _
72
65
73
2
40
0.75
49
0.5
74
0
49
-0.25
74
0
0
ENDTAB
0
TABLE
2
LAYER
5
2
100
AcDbSymbolTable
70
2
0
LAYER
5
50
100
AcDbSymbolTableRecord
100
AcDbLayerTableRecord
2
0
70
0
62
7
6
CONTINUOUS
0
ENDTAB
0
TABLE
2
STYLE
5
3
100
AcDbSymbolTable
70
1
0
STYLE
5
11
100
AcDbSymbolTableRecord
100
AcDbTextStyleTableRecord
2
STANDARD
70
0
0
ENDTAB
0
TABLE
2
VIEW
5
6
100
AcDbSymbolTable
70
0
0
ENDTAB
0
TABLE
2
UCS
5
7
100
AcDbSymbolTable
70
0
0
ENDTAB
0
TABLE
2
APPID
5
9
100
AcDbSymbolTable
70
2
0
APPID
5
12
100
AcDbSymbolTableRecord
100
AcDbRegAppTableRecord
2
ACAD
70
0
0
ENDTAB
0
TABLE
2
DIMSTYLE
5
A
100
AcDbSymbolTable
70
1
0
ENDTAB
0
TABLE
2
BLOCK_RECORD
5
1
100
AcDbSymbolTable
70
1
0
BLOCK_RECORD
5
1F
100
AcDbSymbolTableRecord
100
AcDbBlockTableRecord
2
*MODEL_SPACE
0
BLOCK_RECORD
5
1B
100
AcDbSymbolTableRecord
100
AcDbBlockTableRecord
2
*PAPER_SPACE
0
ENDTAB
0
ENDSEC
0
SECTION
2
BLOCKS
0
BLOCK
5
20
100
AcDbEntity
100
AcDbBlockBegin
2
*MODEL_SPACE
0
ENDBLK
5
21
100
AcDbEntity
100
AcDbBlockEnd
0
BLOCK
5
1C
100
AcDbEntity
100
AcDbBlockBegin
2
*PAPER_SPACE
0
ENDBLK
5
1D
100
AcDbEntity
100
AcDbBlockEnd
0
ENDSEC
0
SECTION
2
ENTITIES
0
POINT
5
100
100
AcDbEntity
8
0
100
AcDbPoint
10
-202.84851095045201
20
-16.455223551450764
30
0
0
POINT
5
101
100
AcDbEntity
8
0
100
AcDbPoint
10
-232.82543455987437
20
-16.455223551451368
30
0
0
POINT
5
102
100
AcDbEntity
8
0
100
AcDbPoint
10
-232.82543455987496
20
13.544776448548586
30
0
0
POINT
5
103
100
AcDbEntity
8
0
100
AcDbPoint
10
-202.84851095045263
20
13.544776448549189
30
0
0
LWPOLYLINE
5
104
100
AcDbEntity
8
0
100
AcDbPolyline
90
20
70
1
43
0.0
10
-187.82543455987522
20
6.044776448549511
10
-187.82543455987494
20
-8.9552235514504641
10
-191.8815638036512
20
-8.9552235514505529
42
0.24007875908008178
10
-192.69058079802616
20
-9.3674382991580831
10
-196.08758161229449
20
-14.043008803743113
42
-0.24007875908010665
10
-196.89659860666944
20
-14.455223551450644
10
-205.387073157175
20
-14.455223551450809
42
-0.54158110307051799
10
-234.75088219118632
20
-7.6131182882935295
42
0.31527389170771974
10
-235.69054382652098
20
-6.9552235514514473
10
-239.32543455987499
20
-6.9552235514515353
42
-0.4142135623731012
10
-240.32543455987505
20
-5.9552235514515353
10
-240.32543455987522
20
3.0447764485484354
42
-0.41421356237309293
10
-239.32543455987525
20
4.0447764485484701
10
-235.69054382652121
20
4.0447764485485402
42
0.31527389170768749
10
-234.75088219118658
20
4.7026711853906722
42
-0.5415811030705171
10
-205.38707315717551
20
11.544776448549142
10
-196.89659860666995
20
11.544776448549282
42
-0.2400787590801374
10
-196.08758161229503
20
11.132561700841793
10
-192.69058079802647
20
6.4569911962569151
42
0.24007875908013371
10
-191.88156380365149
20
6.0447764485494133
0
CIRCLE
5
105
100
AcDbEntity
8
0
100
AcDbCircle
10
-243.82543455987405
20
-51.955223551451517
30
0
40
1.7500000000000069
210
0
220
-0
230
1
0
CIRCLE
5
106
100
AcDbEntity
8
0
100
AcDbCircle
10
-242.82543493240513
20
47.544777178705225
30
0
40
1.7500000000000069
210
0
220
-0
230
1
0
CIRCLE
5
107
100
AcDbEntity
8
0
100
AcDbCircle
10
-191.82543455987414
20
-51.955223551450445
30
0
40
1.7500000000000069
210
0
220
-0
230
1
0
CIRCLE
5
108
100
AcDbEntity
8
0
100
AcDbCircle
10
-191.82543455987621
20
49.044776448549364
30
0
40
1.7500000000000069
210
0
220
-0
230
1
0
CIRCLE
5
109
100
AcDbEntity
8
0
100
AcDbCircle
10
-178.43540029802347
20
-0.34999999999990422
30
0
40
2.7500000000000031
210
-0
220
0
230
1
0
CIRCLE
5
110
100
AcDbEntity
8
0
100
AcDbCircle
10
-158.43540000000024
20
-0.34999999999990261
30
0
40
2.7500000000000031
210
-0
220
0
230
1
0
LWPOLYLINE
5
111
100
AcDbEntity
8
0
100
AcDbPolyline
90
4
70
1
43
0.0
10
-48.435397988343524
20
59.650000000000098
10
-298.43539798834348
20
59.650000000000077
10
-298.43539798834348
20
-60.349999999999888
10
-48.435397988343531
20
-60.349999999999881
0
CIRCLE
5
112
100
AcDbEntity
8
0
100
AcDbCircle
10
-202.84851095045201
20
-16.455223551450764
30
0
40
1.4999999999999996
210
-8.1659429642019448e-31
220
3.2047474274601941e-31
230
1
0
CIRCLE
5
113
100
AcDbEntity
8
0
100
AcDbCircle
10
-202.84851095045263
20
13.544776448549189
30
0
40
1.4999999999999996
210
-8.1659429642019448e-31
220
3.2047474274601941e-31
230
1
0
CIRCLE
5
114
100
AcDbEntity
8
0
100
AcDbCircle
10
-232.82543455987496
20
13.544776448548586
30
0
40
1.4999999999999971
210
-7.8577941730999529e-31
220
1.4791141972892371e-31
230
1
0
CIRCLE
5
115
100
AcDbEntity
8
0
100
AcDbCircle
10
-232.82543455987437
20
-16.455223551451368
30
0
40
1.4999999999999971
210
-7.8577941730999529e-31
220
1.4791141972892371e-31
230
1
0
ENDSEC
0
SECTION
2
OBJECTS
0
DICTIONARY
5
C
100
AcDbDictionary
3
ACAD_GROUP
350
D
3
ACAD_MLINESTYLE
350
17
0
DICTIONARY
5
D
100
AcDbDictionary
0
DICTIONARY
5
1A
330
C
100
AcDbDictionary
0
DICTIONARY
5
17
100
AcDbDictionary
0
ENDSEC
0
EOF
